<svg width="42" height="42" viewBox="0 0 42 42" fill="none" xmlns="http://www.w3.org/2000/svg">
<g clip-path="url(#clip0_770_14091)">
<path opacity="0.252488" d="M36 0H6C2.68629 0 0 2.68629 0 6V36C0 39.3137 2.68629 42 6 42H36C39.3137 42 42 39.3137 42 36V6C42 2.68629 39.3137 0 36 0Z" fill="white"/>
<path fill-rule="evenodd" clip-rule="evenodd" d="M14 12.25H28C28.9625 12.25 29.75 13.0375 29.75 14V24.5C29.75 25.4625 28.9625 26.25 28 26.25H15.75L12.25 29.75V14C12.25 13.0375 13.0375 12.25 14 12.25Z" fill="white"/>
<circle cx="28" cy="14" r="3" fill="#EE4136"/>
</g>
<defs>
<clipPath id="clip0_770_14091">
<rect width="42" height="42" fill="white"/>
</clipPath>
</defs>
</svg>
